# Blender v2.77 (sub 0) OBJ File: ''
# www.blender.org
o Cube
v 7.427872 -0.200000 -0.200000
v 7.427872 -0.200000 0.200000
v -7.405406 -0.200000 0.200000
v -7.405406 -0.200000 -0.200000
v 7.427873 0.200000 -0.200000
v 7.427872 0.200000 0.200000
v -7.405407 0.200000 0.200000
v -7.405406 0.200000 -0.200000
vt 0.2000 0.0000
vt 0.0000 1.0000
vt 0.0000 0.0000
vt 0.2000 0.0000
vt 0.4000 1.0000
vt 0.2000 1.0000
vt 0.8000 0.1348
vt 1.0000 0.0000
vt 1.0000 0.1348
vt 0.6000 0.0000
vt 0.6000 1.0000
vt 1.0000 0.2697
vt 0.8000 0.1348
vt 1.0000 0.1348
vt 0.8000 0.0000
vt 0.6000 1.0000
vt 0.6000 0.0000
vt 0.2000 1.0000
vt 0.4000 0.0000
vt 0.8000 0.0000
vt 0.8000 0.2697
vt 0.8000 1.0000
vn 0.0000 -1.0000 0.0000
vn 0.0000 1.0000 -0.0000
vn 1.0000 0.0000 0.0000
vn -0.0000 -0.0000 1.0000
vn -1.0000 -0.0000 -0.0000
vn 0.0000 0.0000 -1.0000
s off
f 2/1/1 4/2/1 1/3/1
f 8/4/2 6/5/2 5/6/2
f 5/7/3 2/8/3 1/9/3
f 6/5/4 3/10/4 2/11/4
f 3/12/5 8/13/5 4/14/5
f 1/15/6 8/16/6 5/17/6
f 2/1/1 3/18/1 4/2/1
f 8/4/2 7/19/2 6/5/2
f 5/7/3 6/20/3 2/8/3
f 6/5/4 7/19/4 3/10/4
f 3/12/5 7/21/5 8/13/5
f 1/15/6 4/22/6 8/16/6
