# Blender v2.77 (sub 0) OBJ File: 'SpaceModels.blend'
# www.blender.org
o Ship_Spike_Plane.029
v -0.000000 0.065812 0.017967
v 0.000000 0.099810 0.169453
v 0.000000 0.071630 0.265630
v 0.000000 0.066649 0.347782
v 0.000000 0.030662 0.392186
v 0.027550 0.017395 0.392186
v 0.055686 0.039832 0.347782
v 0.047309 0.048847 0.265630
v 0.081612 0.060508 0.169453
v 0.071892 0.031191 0.017967
v 0.101769 -0.027804 0.169453
v 0.058993 -0.002345 0.265630
v 0.069439 -0.020425 0.347782
v 0.034355 -0.012417 0.392186
v -0.034355 -0.012417 0.392186
v -0.069439 -0.020425 0.347782
v -0.058993 -0.002345 0.265630
v -0.101769 -0.027804 0.169453
v -0.071892 0.031191 0.017967
v -0.081612 0.060508 0.169453
v -0.047309 0.048847 0.265630
v -0.055686 0.039832 0.347782
v -0.027550 0.017395 0.392186
v -0.040117 -0.004576 -0.400635
v 0.040117 -0.004576 -0.400635
v -0.000000 0.051927 -0.303265
v -0.000000 -0.061078 -0.303265
v -0.040117 -0.004576 0.871619
v 0.040117 -0.004576 0.871619
v 0.000000 0.032767 0.778535
v 0.000000 -0.041919 0.778535
v -0.294634 -0.004576 0.014512
v 0.294634 -0.004576 0.014512
v 0.000000 0.075381 0.074808
v 0.000000 -0.084532 0.074808
v -0.362184 -0.004576 -0.022729
v 0.362184 -0.004576 -0.022729
v -0.160570 -0.004576 -0.400635
v 0.160570 -0.004576 -0.400635
v -0.670879 -0.004576 -0.340452
v 0.670879 -0.004576 -0.340452
v -0.608301 -0.004576 0.180920
v 0.608301 -0.004576 0.180920
v -0.550836 0.099853 -0.120203
v -0.550836 -0.109005 -0.120203
v 0.550836 0.099853 -0.120204
v 0.550836 -0.109005 -0.120204
v -0.013608 0.051927 -0.303265
v -0.013608 -0.061078 -0.303265
v 0.013608 0.051927 -0.303265
v 0.013608 -0.061078 -0.303265
v -0.008993 0.032767 0.778535
v -0.008993 -0.041919 0.778535
v 0.008993 0.032767 0.778535
v 0.008993 -0.041919 0.778535
v -0.141424 0.075381 0.073680
v -0.141424 -0.084532 0.073680
v 0.141424 0.075381 0.073680
v 0.141424 -0.084532 0.073680
v -0.000000 -0.004576 -0.400635
v 0.000000 -0.004576 0.871619
v -0.461444 0.023948 -0.096520
v -0.461444 -0.033100 -0.096520
v 0.461444 0.023948 -0.096520
v 0.461444 -0.033100 -0.096520
v -0.348589 0.023948 -0.272103
v -0.348589 -0.033100 -0.272103
v 0.348589 0.023948 -0.272103
v 0.348589 -0.033100 -0.272103
v -0.108579 0.023948 -0.159249
v -0.108579 -0.033100 -0.159249
v 0.108579 0.023948 -0.159249
v 0.108579 -0.033100 -0.159249
v -0.108579 0.023948 0.016334
v -0.108579 -0.033100 0.016334
v 0.108579 0.023948 0.016334
v 0.108579 -0.033100 0.016334
v -0.461444 0.032522 -0.096520
v -0.461444 -0.041673 -0.096520
v 0.461444 0.032522 -0.096520
v 0.461444 -0.041673 -0.096520
v -0.348589 0.032522 -0.272103
v -0.348589 -0.041673 -0.272103
v 0.348589 0.032522 -0.272103
v 0.348589 -0.041673 -0.272103
v -0.108579 0.032522 -0.159249
v -0.108579 -0.041673 -0.159249
v 0.108579 0.032522 -0.159249
v 0.108579 -0.041673 -0.159249
v -0.108579 0.032522 0.016334
v -0.108579 -0.041673 0.016334
v 0.108579 0.032522 0.016334
v 0.108579 -0.041673 0.016334
vt 0.0507 0.8232
vt 0.0192 0.8019
vt 0.0450 0.7985
vt 0.0212 0.7595
vt 0.0431 0.7567
vt 0.0378 0.7062
vt 0.0404 0.6317
vt 0.0000 0.7111
vt 0.0071 0.6360
vt 0.8535 0.8529
vt 0.8213 0.8996
vt 0.8247 0.8529
vt 0.8306 0.8108
vt 0.8789 0.5080
vt 0.9032 0.5304
vt 0.8789 0.5236
vt 0.0849 0.7595
vt 0.0867 0.7062
vt 0.1098 0.7111
vt 0.9108 0.4891
vt 0.8789 0.4724
vt 0.9108 0.4579
vt 0.0672 0.8232
vt 0.0941 0.8019
vt 0.0750 0.8249
vt 0.0784 0.7985
vt 0.0715 0.7567
vt 0.4362 0.8139
vt 0.5140 0.7456
vt 0.5785 0.8980
vt 0.8791 0.5438
vt 0.8397 0.6876
vt 0.7347 0.6320
vt 0.8789 0.2697
vt 0.8428 0.4271
vt 0.7354 0.3620
vt 0.7382 0.1799
vt 0.8267 0.1274
vt 0.8846 0.2697
vt 0.5785 0.6312
vt 0.8837 0.8108
vt 0.3063 0.6317
vt 0.3063 0.8929
vt 0.2408 0.7855
vt 0.8846 0.0035
vt 0.3063 0.6389
vt 0.6045 0.8108
vt 0.6045 0.5438
vt 0.8789 0.5343
vt 0.6045 0.0000
vt 0.4059 0.0499
vt 0.6045 0.1631
vt 0.5236 0.2131
vt 0.3063 0.4677
vt 0.1162 0.5785
vt 0.2430 0.4134
vt 0.3063 0.2531
vt 0.3921 0.0540
vt 0.3805 0.2563
vt 0.1021 0.5744
vt 0.0000 0.3792
vt 0.0960 0.3709
vt 0.4522 0.2352
vt 0.1696 0.3916
vt 0.1092 0.5765
vt 0.3990 0.0519
vt 0.5690 0.5774
vt 0.6045 0.6189
vt 0.2791 0.0515
vt 0.5599 0.5801
vt 0.2697 0.0488
vt 0.2646 0.0000
vt 0.3930 0.0061
vt 0.4133 0.0000
vt 0.0891 0.6257
vt 0.1099 0.6317
vt 0.0682 0.6197
vt 0.5842 0.6251
vt 0.2854 0.0060
vt 0.2744 0.0502
vt 0.5645 0.5788
vt 0.9024 0.5722
vt 0.9933 0.7320
vt 0.8837 0.7061
vt 0.8213 0.8108
vt 0.7314 0.9660
vt 0.7129 0.8336
vt 0.9943 0.7320
vt 0.9025 0.8925
vt 0.8837 0.7603
vt 0.1287 0.8433
vt 0.2205 1.0000
vt 0.1098 0.9720
vt 0.7129 0.8108
vt 0.6230 0.9660
vt 0.6045 0.8336
vt 0.8976 0.2981
vt 0.9886 0.4579
vt 0.8789 0.4320
vt 0.9035 0.0250
vt 0.9953 0.1817
vt 0.8846 0.1537
vt 0.2204 0.6317
vt 0.1287 0.7922
vt 0.1098 0.6599
vt 0.5832 0.7929
vt 0.5785 0.8953
vt 0.5785 0.7929
vt 0.5832 0.7929
vt 0.5879 0.8953
vt 0.5832 0.8953
vt 0.5879 0.7932
vt 0.5926 0.8888
vt 0.5879 0.8892
vt 0.2375 0.7934
vt 0.2329 0.8897
vt 0.2329 0.7937
vt 0.5956 0.6312
vt 0.5785 0.7045
vt 0.5910 0.6317
vt 0.2329 0.6322
vt 0.2250 0.7045
vt 0.2204 0.7050
vt 0.6003 0.8205
vt 0.5956 0.6903
vt 0.6003 0.6903
vt 0.9933 0.2697
vt 0.9886 0.3998
vt 0.9886 0.2697
vt 0.5831 0.7040
vt 0.5910 0.7929
vt 0.2375 0.7929
vt 0.2329 0.7934
vt 0.5956 0.6312
vt 0.6003 0.6312
vt 0.9933 0.3998
vt 0.9886 0.4589
vt 0.9990 0.7320
vt 0.9943 0.8861
vt 0.9943 0.7320
vt 1.0000 0.1541
vt 0.9953 0.0000
vt 1.0000 0.0000
vt 0.9980 0.4588
vt 0.9933 0.2697
vt 0.9980 0.2697
vt 0.9980 0.5428
vt 0.9933 0.7320
vt 0.9933 0.5428
vt 0.0379 0.8249
vt 0.8710 0.8996
vt 0.8645 0.8108
vt 0.9032 0.4989
vt 0.8789 0.4989
vt 0.0835 0.6317
vt 0.3727 0.0123
vt 0.3063 0.0120
vt 0.5639 0.6312
vt 0.9933 0.5438
vt 0.8213 0.9963
vt 0.9943 0.9186
vt 0.2205 0.8183
vt 0.7129 0.9963
vt 0.9886 0.2697
vt 0.9953 0.0000
vt 0.2204 0.8183
vt 0.5832 0.8953
vt 0.5879 0.7929
vt 0.5926 0.7929
vt 0.2375 0.8893
vt 0.2375 0.6317
vt 0.5956 0.8205
vt 0.5956 0.7924
vt 0.9933 0.4589
vt 0.9990 0.8861
vt 0.9953 0.1541
vt 0.9933 0.4588
vt 0.9980 0.7320
vn 0.3504 0.7276 0.5897
vn 0.4332 0.8996 0.0545
vn 0.4195 0.8711 0.2552
vn 0.4253 0.8831 -0.1982
vn 0.9129 0.2084 0.3509
vn 0.9722 0.2219 -0.0748
vn 0.7874 0.1797 0.5897
vn -0.9129 0.2084 0.3509
vn -0.9722 0.2219 -0.0748
vn -0.7874 0.1797 0.5897
vn -0.3504 0.7276 0.5897
vn -0.4332 0.8996 0.0545
vn -0.4195 0.8711 0.2552
vn -0.4253 0.8831 -0.1982
vn 0.3005 0.8819 0.3632
vn 0.3005 -0.8819 0.3632
vn -0.3005 0.8819 0.3632
vn -0.3005 -0.8819 0.3632
vn -0.7417 0.6648 0.0890
vn -0.7417 -0.6648 0.0890
vn 0.7417 0.6648 0.0890
vn 0.7417 -0.6648 0.0890
vn -0.0479 0.9124 -0.4065
vn -0.0479 -0.9124 -0.4065
vn 0.0479 0.9124 -0.4065
vn 0.0479 -0.9124 -0.4065
vn 0.3894 0.8973 0.2077
vn 0.3894 -0.8973 0.2077
vn -0.3894 0.8973 0.2077
vn -0.3894 -0.8973 0.2077
vn -0.3956 0.8986 -0.1900
vn -0.3956 -0.8986 -0.1900
vn 0.3956 0.8986 -0.1900
vn 0.3956 -0.8986 -0.1900
vn 0.0005 0.9981 -0.0619
vn 0.0000 -0.9981 -0.0619
vn 0.0000 0.9981 -0.0619
vn -0.0005 -0.9981 -0.0619
vn -0.5297 0.8335 0.1573
vn -0.5014 -0.8529 0.1458
vn 0.5014 0.8529 0.1458
vn 0.5297 -0.8335 0.1573
vn -0.0005 0.9982 0.0604
vn -0.0005 -0.9982 0.0604
vn 0.0005 0.9982 0.0604
vn 0.0005 -0.9982 0.0604
vn 0.0000 0.8649 -0.5019
vn 0.0000 -0.8649 -0.5019
vn 0.0000 0.9281 0.3723
vn 0.0000 -0.9281 0.3723
vn 0.0000 -1.0000 0.0000
vn 0.0000 1.0000 0.0000
vn -0.8412 -0.0000 -0.5407
vn 0.8412 0.0000 -0.5407
vn 0.4255 -0.0000 -0.9050
vn -0.4255 0.0000 -0.9050
vn 1.0000 0.0000 -0.0000
vn -1.0000 -0.0000 0.0000
vn -0.3046 -0.0000 0.9525
vn 0.3046 0.0000 0.9525
vn -0.5196 0.7928 -0.3186
vn -0.5196 -0.7928 -0.3186
vn 0.5196 0.7928 -0.3186
vn 0.5196 -0.7928 -0.3186
vn 0.0005 -0.9981 -0.0619
vn -0.0005 0.9981 -0.0619
vn -0.5014 0.8529 0.1458
vn -0.5297 -0.8335 0.1573
vn 0.5297 0.8335 0.1573
vn 0.5014 -0.8529 0.1458
vn 0.0000 0.9982 0.0604
vn 0.0000 -0.9982 0.0604
s off
f 5/1/1 7/2/1 4/3/1
f 4/3/2 8/4/2 3/5/2
f 8/4/3 2/6/3 3/5/3
f 1/7/4 9/8/4 10/9/4
f 12/10/5 9/11/5 8/12/5
f 7/13/6 12/10/6 8/12/6
f 14/14/7 7/15/7 6/16/7
f 17/17/8 20/18/8 18/19/8
f 22/20/9 17/21/9 16/22/9
f 23/23/10 16/24/10 15/25/10
f 5/1/11 22/26/11 23/23/11
f 4/3/12 21/27/12 22/26/12
f 21/27/13 2/6/13 20/18/13
f 1/7/14 20/18/14 2/6/14
f 36/28/15 44/29/15 42/30/15
f 42/31/16 45/32/16 36/33/16
f 43/34/17 46/35/17 37/36/17
f 37/37/18 47/38/18 43/39/18
f 44/29/19 40/40/19 42/30/19
f 42/31/20 40/41/20 45/32/20
f 43/42/21 41/43/21 46/44/21
f 47/38/22 41/45/22 43/39/22
f 40/40/23 44/29/23 38/46/23
f 38/47/24 45/32/24 40/41/24
f 39/48/25 46/35/25 41/49/25
f 41/45/26 47/38/26 39/50/26
f 44/29/27 36/28/27 38/46/27
f 38/47/28 36/33/28 45/32/28
f 39/48/29 37/36/29 46/35/29
f 47/38/30 37/37/30 39/50/30
f 48/51/31 32/52/31 56/53/31
f 32/54/32 49/55/32 57/56/32
f 33/57/33 50/58/33 58/59/33
f 51/60/34 33/61/34 59/62/34
f 34/63/35 48/51/35 56/53/35
f 35/64/36 49/55/36 27/65/36
f 34/63/37 50/58/37 26/66/37
f 35/64/38 51/60/38 59/62/38
f 52/67/39 32/52/39 28/68/39
f 53/69/40 32/54/40 57/56/40
f 54/70/41 33/57/41 58/59/41
f 55/71/42 33/61/42 29/72/42
f 52/67/43 34/63/43 56/53/43
f 35/64/44 53/69/44 57/56/44
f 34/63/45 54/70/45 58/59/45
f 55/71/46 35/64/46 59/62/46
f 48/51/47 60/73/47 24/74/47
f 60/75/48 49/55/48 24/76/48
f 50/58/47 60/73/47 26/66/47
f 51/60/48 60/75/48 25/77/48
f 61/78/49 52/67/49 28/68/49
f 61/79/50 53/69/50 31/80/50
f 61/78/49 54/70/49 30/81/49
f 61/79/50 55/71/50 29/72/50
f 70/82/51 62/83/51 66/84/51
f 63/85/52 71/86/52 67/87/52
f 64/88/51 72/89/51 68/90/51
f 73/91/52 65/92/52 69/93/52
f 78/94/52 86/95/52 82/96/52
f 87/97/51 79/98/51 83/99/51
f 88/100/52 80/101/52 84/102/52
f 81/103/51 89/104/51 85/105/51
f 78/106/53 66/107/53 62/108/53
f 79/109/53 67/110/53 83/111/53
f 80/112/54 68/113/54 84/114/54
f 81/115/54 69/116/54 65/117/54
f 82/118/55 70/119/55 66/120/55
f 83/121/55 71/122/55 87/123/55
f 84/124/56 72/125/56 88/126/56
f 85/127/56 73/128/56 69/129/56
f 86/130/57 74/131/57 70/119/57
f 87/123/57 75/132/57 91/133/57
f 88/126/58 76/134/58 92/135/58
f 89/136/58 77/137/58 73/128/58
f 90/138/59 62/139/59 74/140/59
f 91/141/59 63/142/59 79/143/59
f 92/144/60 64/145/60 80/146/60
f 93/147/60 65/148/60 77/149/60
f 5/1/1 6/150/1 7/2/1
f 4/3/2 7/2/2 8/4/2
f 8/4/3 9/8/3 2/6/3
f 1/7/4 2/6/4 9/8/4
f 12/10/5 11/151/5 9/11/5
f 7/13/6 13/152/6 12/10/6
f 14/14/7 13/153/7 7/15/7
f 17/17/8 21/27/8 20/18/8
f 22/20/9 21/154/9 17/21/9
f 23/23/10 22/26/10 16/24/10
f 5/1/11 4/3/11 22/26/11
f 4/3/12 3/5/12 21/27/12
f 21/27/13 3/5/13 2/6/13
f 1/7/14 19/155/14 20/18/14
f 48/51/61 24/74/61 32/52/61
f 32/54/62 24/76/62 49/55/62
f 33/57/63 25/156/63 50/58/63
f 51/60/64 25/77/64 33/61/64
f 34/63/37 26/66/37 48/51/37
f 35/64/65 57/56/65 49/55/65
f 34/63/66 58/59/66 50/58/66
f 35/64/36 27/65/36 51/60/36
f 52/67/67 56/53/67 32/52/67
f 53/69/68 28/157/68 32/54/68
f 54/70/69 29/158/69 33/57/69
f 55/71/70 59/62/70 33/61/70
f 52/67/71 30/81/71 34/63/71
f 35/64/72 31/80/72 53/69/72
f 34/63/71 30/81/71 54/70/71
f 55/71/72 31/80/72 35/64/72
f 48/51/47 26/66/47 60/73/47
f 60/75/48 27/65/48 49/55/48
f 50/58/47 25/156/47 60/73/47
f 51/60/48 27/65/48 60/75/48
f 61/78/49 30/81/49 52/67/49
f 61/79/50 28/157/50 53/69/50
f 61/78/49 29/158/49 54/70/49
f 61/79/50 31/80/50 55/71/50
f 70/82/51 74/159/51 62/83/51
f 63/85/52 75/160/52 71/86/52
f 64/88/51 76/161/51 72/89/51
f 73/91/52 77/162/52 65/92/52
f 78/94/52 90/163/52 86/95/52
f 87/97/51 91/164/51 79/98/51
f 88/100/52 92/165/52 80/101/52
f 81/103/51 93/166/51 89/104/51
f 78/106/53 82/167/53 66/107/53
f 79/109/53 63/168/53 67/110/53
f 80/112/54 64/169/54 68/113/54
f 81/115/54 85/170/54 69/116/54
f 82/118/55 86/130/55 70/119/55
f 83/121/55 67/171/55 71/122/55
f 84/124/56 68/172/56 72/125/56
f 85/127/56 89/136/56 73/128/56
f 86/130/57 90/173/57 74/131/57
f 87/123/57 71/122/57 75/132/57
f 88/126/58 72/125/58 76/134/58
f 89/136/58 93/174/58 77/137/58
f 90/138/59 78/175/59 62/139/59
f 91/141/59 75/176/59 63/142/59
f 92/144/60 76/177/60 64/145/60
f 93/147/60 81/178/60 65/148/60
